PathFileType	4	(X/Y/Z)	C:/Users/opensim2020/Desktop/walking_exp_matlab/subject02/subject02_trc/subject02_walking16_run_cyclic.trc																																																																																																																																																							
DataRate	CameraRate	NumFrames	NumMarkers	Units	OrigDataRate	OrigDataStartFrame	OrigNumFrames																																																																																																																																																			
100	100	7	51	mm	100	192	60																																																																																																																																																			
Frame#	Time	RTOE			LSHO			LELB			RELB			RFIN			LTHI			LKNE			RWRB			RUPA			LTIB			RASI			LANK			LTOE			RSHO			RWRA			RFRM			LASI			STRN			LFHD			RTHI			RFHD			LWRB			LFIN			LUPA			RKNE			RBHD			LFRM			C7			LWRA			RTIB			CLAV			LHEE			RANK			LBHD			RBAK			RHEE			T10			LPSI			RPSI			*39			*40			*41			*42			*43			*44			*45			*46			*47			*48			*49			*50		
		X1	Y1	Z1	X2	Y2	Z2	X3	Y3	Z3	X4	Y4	Z4	X5	Y5	Z5	X6	Y6	Z6	X7	Y7	Z7	X8	Y8	Z8	X9	Y9	Z9	X10	Y10	Z10	X11	Y11	Z11	X12	Y12	Z12	X13	Y13	Z13	X14	Y14	Z14	X15	Y15	Z15	X16	Y16	Z16	X17	Y17	Z17	X18	Y18	Z18	X19	Y19	Z19	X20	Y20	Z20	X21	Y21	Z21	X22	Y22	Z22	X23	Y23	Z23	X24	Y24	Z24	X25	Y25	Z25	X26	Y26	Z26	X27	Y27	Z27	X28	Y28	Z28	X29	Y29	Z29	X30	Y30	Z30	X31	Y31	Z31	X32	Y32	Z32	X33	Y33	Z33	X34	Y34	Z34	X35	Y35	Z35	X36	Y36	Z36	X37	Y37	Z37	X38	Y38	Z38	X39	Y39	Z39	X40	Y40	Z40	X41	Y41	Z41	X42	Y42	Z42	X43	Y43	Z43	X44	Y44	Z44	X45	Y45	Z45	X46	Y46	Z46	X47	Y47	Z47	X48	Y48	Z48	X49	Y49	Z49	X50	Y50	Z50	X51	Y51	Z51
																																																																																																																																																										
26	0.25	-759.54236	87.99529	198.23361	-701.91217	1425.8916	-212.2296	-588.20416	1107.41455	-212.06284	-908.7403	1283.13818	332.49863	-762.61902	1031.73291	271.83072	-837.55048	632.53876	-151.20396	-863.89899	434.83578	-101.74187	-825.06616	1044.30212	289.72861	-843.74615	1389.27344	253.08336	-972.67841	274.39987	-97.49238	-727.47211	920.33557	121.59076	-1058.59961	76.65109	-48.70673	-909.82214	29.16728	-47.68572	-714.05463	1474.5647	145.83235	-801.19189	1075.80688	245.91641	-863.71893	1162.7041	315.77914	-755.81305	925.32825	-140.28336	-636.13306	1219.9458	-16.08395	-630.6698	1706.83325	-94.11351	-698.77454	670.28162	217.18793	-637.67145	1686.75671	49.67675	-476.63397	1245.08398	-24.48994	-463.18234	1301.41846	12.60767	-658.78064	1227.57019	-249.7583	-635.82629	481.40936	184.88757	-765.25928	1586.90625	27.88771	-519.78461	1168.52869	-109.7312	-781.12555	1488.72974	-41.94498	-518.99982	1280.85168	-36.32712	-759.66296	348.78012	197.57664	-651.78754	1401.15552	-39.10347	-1107.0498	60.9215	-1.00392	-873.35144	190.90495	172.98671	-745.52399	1610.70093	-112.40598	-874.02368	1343.26111	33.20709	-927.80255	147.15094	118.7118	-890.80621	1244.36768	-5.62914	-938.37927	1023.55542	-28.49129	-931.01184	1024.61255	80.37843	NaN	NaN	NaN	2845.91064	1034.75671	-3357.42358	NaN	NaN	NaN	NaN	NaN	NaN	NaN	NaN	NaN	NaN	NaN	NaN	NaN	NaN	NaN	NaN	NaN	NaN	NaN	NaN	NaN	NaN	NaN	NaN	-748.90582	1751.56116	-11.59081	NaN	NaN	NaN
27	0.26	-668.43433	84.47803	200.19389	-659.14093	1432.96741	-208.04288	-529.23535	1123.97571	-202.86931	-884.28082	1298.84375	332.17334	-741.33154	1044.01843	277.32211	-810.86273	631.55969	-149.23468	-853.19348	434.93106	-102.74138	-804.01801	1057.77612	293.63971	-814.11731	1401.24463	250.60271	-967.00354	281.43182	-98.34295	-687.23462	924.05249	123.72992	-1056.34387	82.68687	-50.52877	-909.96661	28.86171	-48.15113	-681.1947	1479.39624	145.1608	-778.81635	1088.24097	250.44875	-841.29193	1177.76489	317.76688	-719.19421	919.48541	-138.37506	-596.7381	1222.79541	-12.52868	-593.005	1709.52026	-90.61754	-653.06183	676.42737	215.83588	-600.09094	1689.21375	53.14429	-436.3894	1277.95801	-17.15537	-429.81442	1335.41675	19.28093	-603.48859	1241.07166	-243.01404	-579.77051	490.24493	183.20164	-727.47107	1589.11401	30.99888	-470.54602	1195.08801	-101.59163	-744.70361	1489.3291	-41.80836	-482.25201	1308.84741	-29.65426	-691.87726	345.58533	200.4249	-613.33405	1404.44189	-35.22777	-1105.9259	71.14191	-3.35903	-791.33533	177.57323	179.29703	-707.66998	1613.18176	-109.2599	-836.11011	1344.7572	34.06029	-843.43011	129.30083	126.37714	-851.58734	1245.25867	-5.32827	-899.09637	1025.09216	-27.27467	-891.55219	1027.9198	81.37636	NaN	NaN	NaN	2845.27124	1034.42273	-3360.34204	NaN	NaN	NaN	NaN	NaN	NaN	NaN	NaN	NaN	NaN	NaN	NaN	NaN	NaN	NaN	NaN	NaN	NaN	NaN	NaN	NaN	NaN	NaN	NaN	-711.38971	1753.62256	-8.0401	NaN	NaN	NaN
28	0.27	-577.00854	82.44916	200.15491	-617.02911	1441.81335	-203.00662	-472.53647	1141.94653	-196.73869	-859.26666	1313.72961	330.75409	-717.95612	1056.83423	282.38687	-786.65881	632.08514	-148.02405	-840.94781	440.69672	-104.59987	-781.14386	1071.35278	296.99271	-783.71942	1413.13098	248.93121	-959.79498	291.62561	-99.68006	-645.01495	931.39648	124.89243	-1052.68604	92.46107	-53.3942	-910.31549	28.71981	-48.90528	-648.66486	1484.85022	144.68422	-754.54913	1100.84473	254.70958	-817.76605	1192.51685	319.03351	-678.52417	923.16992	-133.01857	-557.33112	1226.5177	-8.3344	-555.20404	1712.96667	-86.80711	-609.10083	682.93994	214.26392	-562.52191	1692.64587	57.01035	-398.90408	1306.68848	-12.21214	-398.20474	1364.89783	23.17567	-550.51221	1256.75977	-237.17352	-527.03107	498.66272	182.21153	-689.91992	1592.68274	34.56516	-423.25259	1219.73108	-95.77072	-708.59711	1491.22693	-41.09939	-446.76334	1333.11523	-26.17408	-624.54395	342.40897	203.08519	-574.8866	1408.66174	-30.81824	-1101.51636	83.71894	-6.87676	-708.14838	165.44978	184.28548	-669.9826	1616.8396	-105.63377	-798.19171	1347.58264	34.49544	-758.09424	113.42449	132.63811	-812.2135	1246.76099	-4.90126	-858.7959	1026.35657	-26.18441	-851.03137	1031.8103	82.78008	NaN	NaN	NaN	2845.34814	1034.18762	-3360.38013	NaN	NaN	NaN	NaN	NaN	NaN	NaN	NaN	NaN	NaN	NaN	NaN	NaN	NaN	NaN	NaN	NaN	NaN	NaN	NaN	NaN	NaN	NaN	NaN	-673.77258	1757.10083	-4.5219	NaN	NaN	NaN
29	0.28	-485.58377	81.7107	197.31886	-575.34949	1451.56628	-197.24667	-417.50754	1160.8822	-193.9928	-833.47113	1327.64026	328.63779	-692.81018	1069.89294	287.397	-762.65601	638.84473	-148.21942	-825.17859	449.33359	-106.28298	-756.46252	1084.70325	299.7551	-752.8877	1424.65588	247.88486	-949.54486	303.67313	-101.74898	-602.05676	940.29675	125.64772	-1046.75391	105.48087	-57.2072	-909.85815	28.47192	-49.60084	-615.64606	1490.44214	144.77928	-728.63861	1114.09509	257.98734	-793.00006	1206.69275	319.54236	-636.70416	930.20117	-127.63686	-516.45441	1231.34863	-2.18342	-517.02808	1717.03735	-82.71799	-566.3277	689.52679	213.05881	-524.73053	1696.68164	61.08625	-363.03226	1330.49097	-9.07319	-367.68066	1389.37976	25.07129	-499.01178	1273.12378	-233.07191	-477.89447	507.05957	181.1469	-652.30426	1597.23706	38.43581	-378.06241	1241.86572	-92.21848	-671.70416	1494.50354	-40.03992	-411.8826	1353.67737	-24.84583	-557.88464	339.60693	205.82396	-536.51453	1413.68884	-26.23639	-1094.23865	99.67014	-11.00816	-623.6377	154.77838	188.11453	-632.10742	1621.33337	-101.70897	-760.53406	1350.64429	34.23183	-671.12762	99.81111	137.60846	-772.70721	1249.41113	-4.09371	-817.72083	1027.96912	-25.37595	-809.39233	1035.75879	84.53565	NaN	NaN	NaN	2846.13501	1034.45581	-3357.38696	NaN	NaN	NaN	NaN	NaN	NaN	NaN	NaN	NaN	NaN	NaN	NaN	NaN	NaN	NaN	NaN	NaN	NaN	NaN	NaN	NaN	NaN	NaN	NaN	-635.65308	1761.76282	-0.83555	NaN	NaN	NaN
30	0.29	-394.83426	82.1912	192.354	-534.12695	1461.84094	-190.99686	-364.57025	1179.68982	-194.55241	-806.80017	1340.33374	325.86734	-666.44977	1082.57861	291.84402	-738.2616	646.73798	-147.79736	-807.36151	459.75354	-108.40965	-730.35059	1097.34851	302.15976	-721.74463	1435.50879	247.04834	-935.70551	317.38519	-104.40749	-558.85565	949.41809	127.51814	-1038.07532	120.11964	-60.80233	-909.85736	28.35644	-50.34651	-582.01599	1496.14111	145.61082	-701.39545	1125.76294	260.74762	-766.97266	1219.93494	319.31601	-594.53888	936.42688	-123.81998	-479.92239	1236.83289	-0.67979	-478.56281	1721.547	-78.27367	-525.38953	695.30859	212.35762	-486.80267	1701.245	65.49733	-327.79767	1349.82581	-6.9657	-337.79187	1408.41846	26.34898	-448.43427	1289.7229	-230.28816	-433.13959	514.75189	180.75177	-614.74438	1602.24939	42.54895	-334.53796	1261.56921	-90.69524	-634.02606	1499.05725	-38.53621	-377.09665	1370.53076	-24.95261	-492.04276	337.49887	208.11359	-498.50424	1419.11255	-21.20402	-1083.97314	119.45447	-14.24475	-538.71759	146.41005	190.94676	-593.99316	1626.34167	-97.61965	-722.83264	1354.34387	33.58813	-583.75177	89.35738	141.17305	-733.07294	1252.90906	-3.35329	-775.74896	1030.00891	-24.74726	-767.14551	1039.47522	86.21368	NaN	NaN	NaN	2845.17676	1034.34729	-3360.4646	NaN	NaN	NaN	NaN	NaN	NaN	NaN	NaN	NaN	NaN	NaN	NaN	NaN	NaN	NaN	NaN	NaN	NaN	NaN	NaN	NaN	NaN	NaN	NaN	-597.1153	1766.98572	3.21953	NaN	NaN	NaN
31	0.3	-305.77991	85.26202	185.96181	-493.22205	1471.51038	-184.45125	-313.51508	1197.36011	-197.99469	-779.33691	1351.74292	322.6268	-639.04529	1094.20154	296.52448	-711.49707	656.76208	-147.84303	-786.84143	471.71838	-110.43388	-703.24976	1108.71484	304.11136	-690.00909	1445.21411	246.62999	-918.61902	332.17316	-106.42063	-517.35223	957.98505	128.4381	-1026.48706	137.093	-64.1275	-909.39343	28.53596	-51.42688	-547.87616	1501.75574	147.2682	-672.81793	1136.74756	263.5723	-739.99768	1231.91785	318.81464	-552.24988	942.10773	-122.39114	-441.04587	1243.60657	3.4813	-440.07608	1726.2312	-73.76678	-485.85333	699.46332	211.82327	-448.79013	1706.03564	70.02412	-293.13708	1365.34375	-6.14925	-308.20352	1422.65027	27.34873	-399.84882	1305.61853	-229.26263	-391.08853	520.67157	180.90523	-577.01343	1607.77234	46.77217	-291.54562	1278.62158	-91.34178	-595.76483	1504.10889	-36.62657	-342.83813	1383.5907	-25.82318	-427.69757	336.35718	209.4912	-460.7229	1425.15308	-16.11496	-1068.68567	140.07581	-16.20732	-454.90463	140.90991	192.59767	-555.87292	1631.58447	-93.30495	-684.60602	1357.62561	32.40804	-497.11008	81.99837	143.35548	-693.38232	1256.52832	-3.27966	-733.54297	1032.74084	-23.96352	-725.27002	1043.45203	87.66489	NaN	NaN	NaN	2845.96118	1034.7345	-3357.25171	NaN	NaN	NaN	NaN	NaN	NaN	NaN	NaN	NaN	NaN	NaN	NaN	NaN	NaN	NaN	NaN	NaN	NaN	NaN	NaN	NaN	NaN	NaN	NaN	-558.54425	1772.45215	7.42687	NaN	NaN	NaN
32	0.31	-220.35542	93.87659	178.02275	-452.59476	1479.8811	-177.74083	-264.40234	1213.14136	-203.90645	-750.61121	1361.5719	319.03015	-610.72382	1104.42712	301.31039	-680.12964	668.18628	-148.08539	-763.10474	484.69321	-112.10267	-675.09155	1118.25183	305.36533	-657.57782	1453.89575	246.48735	-899.00458	347.69165	-106.81825	-475.16077	966.03632	129.01904	-1009.65643	154.2865	-67.27259	-909.35638	28.52869	-52.69389	-513.40845	1507.23694	149.56261	-642.64154	1146.26343	266.41809	-711.67291	1242.25537	317.74133	-509.20325	948.55322	-121.64825	-402.08527	1250.48694	7.89056	-401.62738	1730.78479	-69.10658	-447.54553	702.35297	211.62477	-410.68634	1710.76111	74.63801	-258.67047	1377.07153	-6.17181	-278.41107	1431.90198	28.16779	-352.91907	1320.28101	-228.6763	-350.561	524.40491	181.808	-539.39124	1613.2467	51.33854	-250.04381	1292.60352	-93.92303	-557.37732	1509.51782	-34.50613	-308.89209	1392.63403	-26.81662	-366.56494	336.07742	209.9493	-423.30569	1431.47656	-10.88838	-1045.65442	160.18353	-16.33967	-373.92798	138.43375	192.80705	-517.86322	1636.81531	-88.71854	-646.19482	1361.63721	30.86186	-412.07687	76.50439	143.93176	-653.57306	1260.31372	-5.03753	-690.28052	1035.72412	-23.19499	-683.51208	1047.25391	89.03211	NaN	NaN	NaN	2845.9812	1034.66492	-3357.49365	NaN	NaN	NaN	NaN	NaN	NaN	NaN	NaN	NaN	NaN	NaN	NaN	NaN	NaN	NaN	NaN	NaN	NaN	NaN	NaN	NaN	NaN	NaN	NaN	-520.02307	1777.59888	11.77464	NaN	NaN	NaN
